<mxfile host="app.diagrams.net" modified="2023-06-28T05:31:03.289Z" agent="Mozilla/5.0 (Windows NT 10.0; Win64; x64) AppleWebKit/537.36 (KHTML, like Gecko) Chrome/114.0.0.0 Safari/537.36" etag="M--v4pRhNDbmrnLKEV_g" version="21.2.1" type="github">
  <diagram name="Page-1" id="vsd8F2-XAkdo3-YBkcUd">
    <mxGraphModel dx="1316" dy="579" grid="1" gridSize="10" guides="1" tooltips="1" connect="1" arrows="1" fold="1" page="1" pageScale="1" pageWidth="827" pageHeight="1169" math="0" shadow="0">
      <root>
        <mxCell id="0" />
        <mxCell id="1" parent="0" />
        <mxCell id="mWnlQc6YKfiYif101gf7-26" value="" style="rounded=0;whiteSpace=wrap;html=1;" vertex="1" parent="1">
          <mxGeometry x="40" y="30" width="800" height="610" as="geometry" />
        </mxCell>
        <mxCell id="mWnlQc6YKfiYif101gf7-27" value="" style="rounded=0;whiteSpace=wrap;html=1;" vertex="1" parent="1">
          <mxGeometry x="50" y="250" width="780" height="370" as="geometry" />
        </mxCell>
        <mxCell id="mWnlQc6YKfiYif101gf7-28" value="" style="rounded=0;whiteSpace=wrap;html=1;" vertex="1" parent="1">
          <mxGeometry x="52" y="250" width="358" height="40" as="geometry" />
        </mxCell>
        <mxCell id="mWnlQc6YKfiYif101gf7-29" value="WishList" style="rounded=1;whiteSpace=wrap;html=1;" vertex="1" parent="1">
          <mxGeometry x="50" y="250" width="120" height="40" as="geometry" />
        </mxCell>
        <mxCell id="mWnlQc6YKfiYif101gf7-30" value="Cart" style="rounded=1;whiteSpace=wrap;html=1;" vertex="1" parent="1">
          <mxGeometry x="170" y="251" width="120" height="40" as="geometry" />
        </mxCell>
        <mxCell id="mWnlQc6YKfiYif101gf7-31" value="Orders" style="rounded=1;whiteSpace=wrap;html=1;fillColor=#0050ef;fontColor=#ffffff;strokeColor=#001DBC;" vertex="1" parent="1">
          <mxGeometry x="290" y="251" width="120" height="40" as="geometry" />
        </mxCell>
        <mxCell id="mWnlQc6YKfiYif101gf7-32" value="" style="rounded=0;whiteSpace=wrap;html=1;" vertex="1" parent="1">
          <mxGeometry x="52" y="40" width="778" height="200" as="geometry" />
        </mxCell>
        <mxCell id="mWnlQc6YKfiYif101gf7-33" value="Address" style="rounded=1;whiteSpace=wrap;html=1;" vertex="1" parent="1">
          <mxGeometry x="65" y="88" width="460" height="140" as="geometry" />
        </mxCell>
        <mxCell id="mWnlQc6YKfiYif101gf7-34" value="" style="rounded=1;whiteSpace=wrap;html=1;" vertex="1" parent="1">
          <mxGeometry x="70" y="340" width="740" height="260" as="geometry" />
        </mxCell>
        <mxCell id="mWnlQc6YKfiYif101gf7-35" value="Product Image" style="rounded=0;whiteSpace=wrap;html=1;" vertex="1" parent="1">
          <mxGeometry x="100" y="360" width="280" height="220" as="geometry" />
        </mxCell>
        <mxCell id="mWnlQc6YKfiYif101gf7-36" value="Product description" style="rounded=0;whiteSpace=wrap;html=1;" vertex="1" parent="1">
          <mxGeometry x="381" y="360" width="409" height="110" as="geometry" />
        </mxCell>
        <mxCell id="mWnlQc6YKfiYif101gf7-37" value="Profile Page" style="rounded=0;whiteSpace=wrap;html=1;" vertex="1" parent="1">
          <mxGeometry x="52" y="40" width="338" height="40" as="geometry" />
        </mxCell>
        <mxCell id="mWnlQc6YKfiYif101gf7-38" value="UserName" style="rounded=0;whiteSpace=wrap;html=1;align=left;" vertex="1" parent="1">
          <mxGeometry x="580" y="40" width="250" height="30" as="geometry" />
        </mxCell>
        <mxCell id="mWnlQc6YKfiYif101gf7-39" value="Checkout" style="rounded=0;whiteSpace=wrap;html=1;fillColor=#0050ef;fontColor=#ffffff;strokeColor=#001DBC;" vertex="1" parent="1">
          <mxGeometry x="690" y="515" width="100" height="40" as="geometry" />
        </mxCell>
        <mxCell id="mWnlQc6YKfiYif101gf7-40" value="Remove" style="rounded=0;whiteSpace=wrap;html=1;fillColor=default;" vertex="1" parent="1">
          <mxGeometry x="740" y="360" width="50" height="30" as="geometry" />
        </mxCell>
        <mxCell id="mWnlQc6YKfiYif101gf7-41" value="Order detalis" style="rounded=0;whiteSpace=wrap;html=1;verticalAlign=top;align=left;" vertex="1" parent="1">
          <mxGeometry x="381" y="470" width="289" height="110" as="geometry" />
        </mxCell>
        <mxCell id="mWnlQc6YKfiYif101gf7-42" value="Logout" style="rounded=0;whiteSpace=wrap;html=1;fillColor=#1ba1e2;strokeColor=#006EAF;fontColor=#ffffff;" vertex="1" parent="1">
          <mxGeometry x="710" y="40" width="120" height="30" as="geometry" />
        </mxCell>
        <mxCell id="mWnlQc6YKfiYif101gf7-43" value="Search products&amp;nbsp;" style="rounded=0;whiteSpace=wrap;html=1;align=left;" vertex="1" parent="1">
          <mxGeometry x="420" y="270" width="360" height="70" as="geometry" />
        </mxCell>
        <mxCell id="mWnlQc6YKfiYif101gf7-44" value="quantity" style="rounded=0;whiteSpace=wrap;html=1;fillColor=default;" vertex="1" parent="1">
          <mxGeometry x="380" y="500" width="150" height="25" as="geometry" />
        </mxCell>
        <mxCell id="mWnlQc6YKfiYif101gf7-45" value="Price" style="rounded=0;whiteSpace=wrap;html=1;fillColor=default;" vertex="1" parent="1">
          <mxGeometry x="381" y="530" width="149" height="25" as="geometry" />
        </mxCell>
      </root>
    </mxGraphModel>
  </diagram>
</mxfile>
